<svg xmlns="http://www.w3.org/2000/svg" viewBox="0 0 220.82 293.71"><defs><style>.cls-1{fill:#fff;}</style></defs><g id="Layer_2" data-name="Layer 2"><g id="Layer_1-2" data-name="Layer 1"><path class="cls-1" d="M219.81,95.19C213.34,46.34,173.45,6.94,124.56.88A110.49,110.49,0,0,0,24.73,180.13l.39.51,79.07,109.88a7.66,7.66,0,0,0,12.45,0l78.42-109.08A110.6,110.6,0,0,0,219.81,95.19Zm-46.24-5.8v62.66l-57.45,33.56v-67l43.94-22.32Zm-68.86,29.2v67L47.27,152.05V89.39ZM54.15,80.11l56.27-28.59,56.26,28.59L164,81.5l-53.53,27.19Z"/><path class="cls-1" d="M110.42,45.12l-68.86,35,68.86,35,68.85-35Zm0,63.57L54.15,80.11l56.27-28.59,56.26,28.59L164,81.5Z"/><path class="cls-1" d="M110.42,115.09v80.46l68.85-40.22V80.11Zm63.15,37-57.45,33.56v-67l43.94-22.32,13.51-6.88Z"/><path class="cls-1" d="M41.56,80.11v75.22l68.86,40.22V115.09Zm63.15,105.5L47.27,152.05V89.39l57.44,29.2Z"/><path class="cls-1" d="M184.79,78.74a.7.7,0,0,1,0-.12,5.37,5.37,0,0,0-.48-1.2s-.05-.11-.08-.15a5.75,5.75,0,0,0-.75-1l-.14-.15a5.88,5.88,0,0,0-1-.8l-.07-.06s-.08,0-.11-.06-.2-.12-.29-.16L113,40a5.68,5.68,0,0,0-5.17,0L39,75a3,3,0,0,0-.3.16s-.07,0-.1.06-.05,0-.08.06a6.36,6.36,0,0,0-1,.79l-.14.16a5.75,5.75,0,0,0-.75,1s-.05.1-.08.15a5.37,5.37,0,0,0-.48,1.2.7.7,0,0,1,0,.12,6.27,6.27,0,0,0-.18,1.37v75.22a5.73,5.73,0,0,0,2.83,4.92l68.85,40.22h0s0,0,0,0a4,4,0,0,0,.92.37c.15.06.3.15.45.2a5.82,5.82,0,0,0,3,0c.15-.05.3-.14.47-.2a5.33,5.33,0,0,0,.9-.37s0,0,0,0h0l68.85-40.22a5.71,5.71,0,0,0,2.83-4.92V80.11A6.27,6.27,0,0,0,184.79,78.74Zm-11.22,73.31-57.45,33.56v-67l43.94-22.32,13.51-6.88Zm-68.86,33.56L47.27,152.05V89.39l57.44,29.2ZM164,81.5l-53.53,27.19L54.15,80.11l56.27-28.59,56.26,28.59Z"/></g></g></svg>
